<svg xmlns="http://www.w3.org/2000/svg" width="28" height="28" viewBox="0 0 28 28">
    <g fill="none" fill-rule="evenodd">
        <g>
            <g transform="translate(-36 -452) translate(36 452)">
                <circle cx="14" cy="14" r="14" fill="#9B9B9B" fill-opacity=".9" fill-rule="nonzero"/>
                <path fill="#FFF" d="M15.75 20.4v.874c0 .967-.784 1.75-1.75 1.75s-1.75-.783-1.75-1.75V20.4h3.5zM14 4.374c.966 0 1.75.784 1.75 1.75V19.25h-3.5V6.125c0-.966.784-1.75 1.75-1.75z" transform="rotate(-135 14 13.7)"/>
                <path fill="#FFF" d="M13.31 6.815L12.25 6.125 13.31 5.435 14 4.375 14.69 5.435 15.75 6.125 14.69 6.815 14 7.875zM18.825 16.175L17.5 15.313 18.825 14.45 19.688 13.125 20.55 14.45 21.875 15.313 20.55 16.175 19.688 17.5z"/>
                <circle cx="9.625" cy="7.875" r="1" fill="#FFF"/>
                <circle cx="24.5" cy="14" r="1" fill="#FFF"/>
            </g>
        </g>
    </g>
</svg>
